<?xml version="1.0" encoding="UTF-8" standalone="no"?>
<svg width="128px" height="128px" viewBox="0 0 128 128" version="1.1" xmlns="http://www.w3.org/2000/svg" xmlns:xlink="http://www.w3.org/1999/xlink" xmlns:sketch="http://www.bohemiancoding.com/sketch/ns">
    <!-- Generator: sketchtool 3.4 (375) - http://www.bohemiancoding.com/sketch -->
    <title>fanber-logo-square</title>
    <desc>Created with sketchtool.</desc>
    <defs>
        <linearGradient x1="100.071845%" y1="49.9568106%" x2="-0.100970874%" y2="49.9568106%" id="linearGradient-1">
            <stop stop-color="#06BDE5" offset="0%"></stop>
            <stop stop-color="#2A4583" offset="100%"></stop>
        </linearGradient>
        <linearGradient x1="0.166994106%" y1="49.8006623%" x2="99.8860511%" y2="49.8006623%" id="linearGradient-2">
            <stop stop-color="#7EC24D" offset="0%"></stop>
            <stop stop-color="#006D43" offset="100%"></stop>
        </linearGradient>
    </defs>
    <g id="Page-1" stroke="none" stroke-width="1" fill="none" fill-rule="evenodd" sketch:type="MSPage">
        <g id="fanber-logo-square" sketch:type="MSLayerGroup">
            <rect id="Rectangle-74" fill="#FFFFFF" sketch:type="MSShapeGroup" x="0" y="0" width="128" height="128"></rect>
            <g id="Shape-+-Shape" transform="translate(9.000000, 35.000000)" sketch:type="MSShapeGroup">
                <path d="M5.26671168,39.7293065 L5.26671168,24.0223714 C2.50168805,28.7740492 0.65833896,34.0536913 0,39.7293065 L5.26671168,39.7293065 L5.26671168,39.7293065 Z M22.5151924,35.3736018 L22.5151924,35.3736018 L20.9351789,39.7293065 L31.4686023,39.7293065 L30.0202566,35.3736018 L22.5151924,35.3736018 L22.5151924,35.3736018 Z M42.397029,25.738255 L42.397029,25.738255 L42.5286968,39.7293065 L45.8203916,39.7293065 L48.3220797,35.6375839 L42.5286968,25.738255 L42.397029,25.738255 L42.397029,25.738255 Z M26.2018906,23.4944072 L26.2018906,23.4944072 L23.7002026,31.4138702 L28.8352465,31.4138702 L26.4652262,23.4944072 L26.3335584,23.4944072 L26.2018906,23.4944072 Z M67.8089129,3.82774049 L67.8089129,3.82774049 C61.7521945,1.31991051 55.1688049,0 48.1904119,0 C31.7319379,0 17.116813,7.65548098 8.2950709,19.4026846 L18.3018231,19.4026846 L18.3018231,23.3624161 L10.6650912,23.3624161 L10.6650912,27.7181208 L17.6434841,27.7181208 L17.6434841,31.6778523 L10.6650912,31.6778523 L10.6650912,39.7293065 L15.2734639,39.7293065 L22.778528,19.4026846 L29.756921,19.4026846 L37.3936529,39.7293065 L37.3936529,19.4026846 L44.6353815,19.4026846 L51.2187711,30.885906 L52.6671168,28.5100671 L52.535449,19.4026846 L58.1971641,19.4026846 L67.6772451,3.95973154 L67.8089129,3.82774049 Z" id="Shape" fill="url(#linearGradient-1)"></path>
                <path d="M63.332208,24.9463087 C63.332208,23.098434 62.1471978,22.8344519 60.4355165,22.8344519 L58.855503,22.8344519 L58.855503,27.1901566 L60.3038488,27.1901566 C62.01553,27.1901566 63.332208,26.7941834 63.332208,24.9463087 L63.332208,24.9463087 Z M97.5658339,25.2102908 L97.5658339,25.2102908 C97.5658339,23.7583893 96.3808238,22.8344519 94.8008103,22.8344519 L92.8257934,22.8344519 L92.8257934,27.5861298 L94.8008103,27.5861298 C96.249156,27.5861298 97.5658339,27.0581655 97.5658339,25.2102908 L97.5658339,25.2102908 Z M96.5124916,19.1387025 L96.5124916,19.1387025 C100.19919,19.1387025 103.095881,21.3825503 103.095881,24.9463087 C103.095881,27.5861298 101.3842,29.9619687 99.2775152,30.753915 L101.910871,35.5055928 C104.807562,30.6219239 106.782579,25.0782998 107.572586,19.2706935 L96.6441594,19.2706935 L96.5124916,19.1387025 Z M92.6941256,31.6778523 L92.6941256,31.6778523 L92.6941256,39.4653244 L87.1640783,39.4653244 L87.1640783,19.1387025 L84.3990547,19.1387025 L84.3990547,23.098434 L76.1039838,23.098434 L76.1039838,27.1901566 L83.6090479,27.1901566 L83.6090479,31.1498881 L76.1039838,31.1498881 L76.1039838,35.6375839 L84.6623903,35.6375839 L84.6623903,39.5973154 L70.5739365,39.5973154 L70.5739365,19.2706935 L62.1471978,19.2706935 C65.9655638,19.2706935 68.7305874,20.9865772 68.7305874,24.4183445 C68.7305874,26.9261745 67.4139095,28.3780761 65.1755571,29.1700224 L65.1755571,29.3020134 C67.9405807,29.8299776 69.2572586,31.4138702 69.2572586,33.9217002 C69.2572586,38.541387 65.3072248,39.7293065 61.4888589,39.7293065 L50.4287643,39.7293065 L50.2970966,39.7293065 L40.5536799,55.1722595 C46.6103984,57.6800895 52.1404456,59 59.1188386,59 C75.1823093,59 89.5340986,51.7404922 98.3558406,40.5212528 L94.1424713,31.8098434 L92.6941256,31.8098434 L92.6941256,31.6778523 Z M63.7272113,33.393736 L63.7272113,33.393736 C63.7272113,31.1498881 62.1471978,30.885906 60.4355165,30.885906 L58.7238352,30.885906 L58.7238352,35.7695749 L60.3038488,35.7695749 C62.2788656,35.7695749 63.7272113,35.3736018 63.7272113,33.393736 L63.7272113,33.393736 Z" id="Shape" fill="url(#linearGradient-2)"></path>
            </g>
        </g>
    </g>
</svg>