<?xml version="1.0" encoding="UTF-8" standalone="no"?>
<svg width="82px" height="45px" viewBox="0 0 82 45" version="1.1" xmlns="http://www.w3.org/2000/svg" xmlns:xlink="http://www.w3.org/1999/xlink" xmlns:sketch="http://www.bohemiancoding.com/sketch/ns">
    <!-- Generator: sketchtool 3.4 (375) - http://www.bohemiancoding.com/sketch -->
    <title>fanber-logo</title>
    <desc>Created with sketchtool.</desc>
    <defs>
        <linearGradient x1="100.071845%" y1="49.9568106%" x2="-0.100970874%" y2="49.9568106%" id="linearGradient-1">
            <stop stop-color="#06BDE5" offset="0%"></stop>
            <stop stop-color="#2A4583" offset="100%"></stop>
        </linearGradient>
        <linearGradient x1="0.166994106%" y1="49.8006623%" x2="99.8860511%" y2="49.8006623%" id="linearGradient-2">
            <stop stop-color="#7EC24D" offset="0%"></stop>
            <stop stop-color="#006D43" offset="100%"></stop>
        </linearGradient>
    </defs>
    <g id="Page-1" stroke="none" stroke-width="1" fill="none" fill-rule="evenodd" sketch:type="MSPage">
        <g id="Homepage-ver-1" sketch:type="MSArtboardGroup" transform="translate(-220.000000, -12.000000)">
            <g id="static-header" sketch:type="MSLayerGroup" transform="translate(160.000000, 0.000000)">
                <g id="fanber-logo" transform="translate(60.000000, 12.000000)" sketch:type="MSShapeGroup">
                    <path d="M3.99879961,30.3020134 L3.99879961,18.3221477 C1.89942981,21.9463087 0.499849951,25.9731544 0,30.3020134 L3.99879961,30.3020134 L3.99879961,30.3020134 Z M17.0948683,26.9798658 L17.0948683,26.9798658 L15.8952284,30.3020134 L23.8928277,30.3020134 L22.7931578,26.9798658 L17.0948683,26.9798658 L17.0948683,26.9798658 Z M32.1903369,19.6308725 L32.1903369,19.6308725 L32.2903068,30.3020134 L34.7895566,30.3020134 L36.6889864,27.1812081 L32.2903068,19.6308725 L32.1903369,19.6308725 L32.1903369,19.6308725 Z M19.8940281,17.9194631 L19.8940281,17.9194631 L17.9945982,23.9597315 L21.8934279,23.9597315 L20.093968,17.9194631 L19.993998,17.9194631 L19.8940281,17.9194631 Z M51.484545,2.91946309 L51.484545,2.91946309 C46.8859254,1.00671141 41.8874259,0 36.5890164,0 C24.0927676,0 12.9960987,5.83892617 6.29810939,14.7986577 L13.8958286,14.7986577 L13.8958286,17.8187919 L8.09756921,17.8187919 L8.09756921,21.1409396 L13.3959787,21.1409396 L13.3959787,24.1610738 L8.09756921,24.1610738 L8.09756921,30.3020134 L11.5965189,30.3020134 L17.2948083,14.7986577 L22.5932178,14.7986577 L28.3914772,30.3020134 L28.3914772,14.7986577 L33.8898267,14.7986577 L38.8883262,23.557047 L39.9879961,21.7449664 L39.8880261,14.7986577 L44.1867357,14.7986577 L51.384575,3.02013423 L51.484545,2.91946309 Z" id="Shape" fill="url(#linearGradient-1)"></path>
                    <path d="M48.0855653,19.0268456 C48.0855653,17.6174497 47.1858354,17.4161074 45.8862255,17.4161074 L44.6865856,17.4161074 L44.6865856,20.738255 L45.7862555,20.738255 C47.0858654,20.738255 48.0855653,20.4362416 48.0855653,19.0268456 L48.0855653,19.0268456 Z M74.0777628,19.2281879 L74.0777628,19.2281879 C74.0777628,18.1208054 73.1780329,17.4161074 71.978393,17.4161074 L70.4788431,17.4161074 L70.4788431,21.0402685 L71.978393,21.0402685 C73.0780629,21.0402685 74.0777628,20.6375839 74.0777628,19.2281879 L74.0777628,19.2281879 Z M73.2780029,14.5973154 L73.2780029,14.5973154 C76.0771626,14.5973154 78.2765024,16.3087248 78.2765024,19.0268456 C78.2765024,21.0402685 76.9768925,22.852349 75.3773726,23.4563758 L77.3767725,27.0805369 C79.5761122,23.3557047 81.0756621,19.1275168 81.675482,14.6979866 L73.3779728,14.6979866 L73.2780029,14.5973154 Z M70.3788731,24.1610738 L70.3788731,24.1610738 L70.3788731,30.1006711 L66.1801335,30.1006711 L66.1801335,14.5973154 L64.0807637,14.5973154 L64.0807637,17.6174497 L57.7826544,17.6174497 L57.7826544,20.738255 L63.4809438,20.738255 L63.4809438,23.7583893 L57.7826544,23.7583893 L57.7826544,27.1812081 L64.2807037,27.1812081 L64.2807037,30.2013423 L53.5839148,30.2013423 L53.5839148,14.6979866 L47.1858354,14.6979866 C50.0849651,14.6979866 52.1843349,16.0067114 52.1843349,18.6241611 C52.1843349,20.5369128 51.184635,21.6442953 49.4851452,22.2483221 L49.4851452,22.3489933 C51.584515,22.7516779 52.5842149,23.9597315 52.5842149,25.8724832 C52.5842149,29.3959732 49.5851152,30.3020134 46.6859854,30.3020134 L38.2885063,30.3020134 L38.1885363,30.3020134 L30.790757,42.0805369 C35.3893765,43.9932886 39.5881161,45 44.8865256,45 C57.0828644,45 67.9795934,39.4630872 74.6775827,30.9060403 L71.478543,24.261745 L70.3788731,24.261745 L70.3788731,24.1610738 Z M48.3854753,25.4697987 L48.3854753,25.4697987 C48.3854753,23.7583893 47.1858354,23.557047 45.8862255,23.557047 L44.5866157,23.557047 L44.5866157,27.2818792 L45.7862555,27.2818792 C47.2858054,27.2818792 48.3854753,26.9798658 48.3854753,25.4697987 L48.3854753,25.4697987 Z" id="Shape" fill="url(#linearGradient-2)"></path>
                </g>
            </g>
        </g>
    </g>
</svg>