<?xml version="1.0" encoding="UTF-8" standalone="no"?>
<svg width="80px" height="80px" viewBox="0 0 80 80" version="1.1" xmlns="http://www.w3.org/2000/svg" xmlns:xlink="http://www.w3.org/1999/xlink" xmlns:sketch="http://www.bohemiancoding.com/sketch/ns">
    <!-- Generator: sketchtool 3.4 (375) - http://www.bohemiancoding.com/sketch -->
    <title>feature-icon-2</title>
    <desc>Created with sketchtool.</desc>
    <defs>
        <radialGradient cx="50%" cy="13.9160156%" fx="50%" fy="13.9160156%" r="92.2412109%" id="radialGradient-1">
            <stop stop-color="#3D99FC" offset="0%"></stop>
            <stop stop-color="#064C94" offset="100%"></stop>
        </radialGradient>
        <rect id="path-2" x="0" y="0" width="80" height="80" rx="3"></rect>
    </defs>
    <g id="Page-1" stroke="none" stroke-width="1" fill="none" fill-rule="evenodd" sketch:type="MSPage">
        <g id="Homepage-ver-1" sketch:type="MSArtboardGroup" transform="translate(-520.000000, -832.000000)">
            <g id="features" sketch:type="MSLayerGroup" transform="translate(160.000000, 772.000000)">
                <g id="feature-icon-2" transform="translate(360.000000, 60.000000)">
                    <g id="Rectangle-16-Copy">
                        <use fill="url(#radialGradient-1)" fill-rule="evenodd" sketch:type="MSShapeGroup" xlink:href="#path-2"></use>
                        <use fill="none" xlink:href="#path-2"></use>
                    </g>
                    <rect id="Rectangle-23-Copy" stroke="#FFFFFF" stroke-width="2" sketch:type="MSShapeGroup" x="4" y="4" width="72" height="72" rx="2"></rect>
                    <g id="noun_175771_cc-copy" transform="translate(40.000000, 40.000000) scale(-1, 1) translate(-40.000000, -40.000000) translate(16.000000, 16.000000)" fill="#FFFFFF" sketch:type="MSShapeGroup">
                        <g id="Group">
                            <path d="M36.9333333,5.53333333 C36.5333333,5.53333333 36.1333333,5.33333333 35.8666667,5 C34.9333333,3.73333333 33.4,2.93333333 31.8,2.93333333 C30.9333333,2.93333333 30.1333333,3.13333333 29.2,3.33333333 C28.8666667,3.4 28.5333333,3.46666667 28.1333333,3.53333333 C25.3333333,4.06666667 22.4666667,4 19.7333333,3.93333333 L15.3333333,3.8 C14.2,3.73333333 14.0666667,3.73333333 12.3333333,3.06666667 C11.6666667,2.8 11.3333333,2.06666667 11.6,1.4 C11.8666667,0.733333333 12.6,0.4 13.2666667,0.666666667 C14.7333333,1.2 14.7333333,1.2 15.4666667,1.26666667 L19.8666667,1.33333333 C22.4666667,1.4 25.1333333,1.46666667 27.6666667,1 C28,0.933333333 28.3333333,0.866666667 28.6666667,0.8 C29.6666667,0.6 30.6666667,0.333333333 31.8,0.333333333 L31.8,0.333333333 C34.2,0.333333333 36.5333333,1.53333333 37.9333333,3.46666667 C38.3333333,4.06666667 38.2,4.86666667 37.6666667,5.26666667 C37.4666667,5.46666667 37.2,5.53333333 36.9333333,5.53333333 L36.9333333,5.53333333 Z" id="Shape"></path>
                            <path d="M42.2,28.6 L42.2,7.46666667 C42.2,7.06666667 41.8666667,6.73333333 41.4666667,6.73333333 L33.4,6.73333333 C33,6.73333333 32.6666667,7.06666667 32.6666667,7.46666667 L32.6666667,28.1333333 C32.6666667,28.6666667 32.0666667,29 31.6,28.8 L16.7333333,21.4666667 C16.2666667,21.2 15.6666667,21.6 15.6666667,22.1333333 L15.6666667,27.2 C15.6666667,27.7333333 15.0666667,28.0666667 14.6,27.8666667 L1.66666667,21.4666667 C1.2,21.2 0.6,21.6 0.6,22.1333333 L0.6,46.9333333 C0.6,47.3333333 0.933333333,47.6666667 1.33333333,47.6666667 L37.1333333,47.6666667 L41.4666667,47.6666667 L46.2,47.6666667 C46.8666667,47.6666667 47.4,47.1333333 47.4,46.4666667 L47.4,31 C47.4,30.3333333 46.8666667,29.8 46.2,29.8 L43.4666667,29.8 C42.7333333,29.8 42.2,29.2666667 42.2,28.6 L42.2,28.6 Z M16,39 C16,39.4 15.6666667,39.7333333 15.2666667,39.7333333 L6.33333333,39.7333333 C5.93333333,39.7333333 5.6,39.4 5.6,39 L5.6,33.2 C5.6,32.8 5.93333333,32.4666667 6.33333333,32.4666667 L15.2666667,32.4666667 C15.6666667,32.4666667 16,32.8 16,33.2 L16,39 L16,39 Z M31.9333333,39 C31.9333333,39.4 31.6,39.7333333 31.2,39.7333333 L22.2666667,39.7333333 C21.8666667,39.7333333 21.5333333,39.4 21.5333333,39 L21.5333333,33.2 C21.5333333,32.8 21.8666667,32.4666667 22.2666667,32.4666667 L31.2,32.4666667 C31.6,32.4666667 31.9333333,32.8 31.9333333,33.2 L31.9333333,39 L31.9333333,39 Z" id="Shape"></path>
                        </g>
                    </g>
                </g>
            </g>
        </g>
    </g>
</svg>