<?xml version="1.0" encoding="UTF-8" standalone="no"?>
<svg width="80px" height="80px" viewBox="0 0 80 80" version="1.1" xmlns="http://www.w3.org/2000/svg" xmlns:xlink="http://www.w3.org/1999/xlink" xmlns:sketch="http://www.bohemiancoding.com/sketch/ns">
    <!-- Generator: sketchtool 3.4 (375) - http://www.bohemiancoding.com/sketch -->
    <title>feature-icon-4</title>
    <desc>Created with sketchtool.</desc>
    <defs>
        <radialGradient cx="50%" cy="13.9160156%" fx="50%" fy="13.9160156%" r="92.2412109%" id="radialGradient-1">
            <stop stop-color="#3D99FC" offset="0%"></stop>
            <stop stop-color="#064C94" offset="100%"></stop>
        </radialGradient>
        <rect id="path-2" x="0" y="0" width="80" height="80" rx="3"></rect>
    </defs>
    <g id="Page-1" stroke="none" stroke-width="1" fill="none" fill-rule="evenodd" sketch:type="MSPage">
        <g id="Homepage-ver-1" sketch:type="MSArtboardGroup" transform="translate(-1120.000000, -832.000000)">
            <g id="features" sketch:type="MSLayerGroup" transform="translate(160.000000, 772.000000)">
                <g id="feature-icon-4" transform="translate(960.000000, 60.000000)">
                    <g id="Rectangle-16-Copy-2">
                        <use fill="url(#radialGradient-1)" fill-rule="evenodd" sketch:type="MSShapeGroup" xlink:href="#path-2"></use>
                        <use fill="none" xlink:href="#path-2"></use>
                    </g>
                    <rect id="Rectangle-23" stroke="#FFFFFF" stroke-width="2" sketch:type="MSShapeGroup" x="4" y="4" width="72" height="72" rx="2"></rect>
                    <g id="noun_100311_cc" transform="translate(19.000000, 15.000000)" fill="#FFFFFF" sketch:type="MSShapeGroup">
                        <path d="M40.517,8.52 C27.463,8.52 25.007,0.506 25.007,0.506 L21,0.506 L16.993,0.506 C16.993,0.506 14.537,8.52 1.483,8.52 C1.483,10.717 -3.946,39.67 21,49.493 C45.946,39.671 40.517,10.718 40.517,8.52 L40.517,8.52 Z M21,46.322 C8.512,40.881 2.714,28.831 4.171,11.342 C13.147,10.591 17.172,6.139 18.808,3.437 L21,3.437 L23.192,3.437 C24.828,6.138 28.854,10.591 37.829,11.342 C39.286,28.83 33.488,40.881 21,46.322 L21,46.322 Z" id="Shape"></path>
                        <path d="M22.308,34.439 C22.794,34.287 23.201,34.122 23.453,33.967 C23.156,33.875 22.733,33.787 22.308,33.709 L22.308,34.439 L22.308,34.439 Z" id="Shape"></path>
                        <path d="M23.764,8.1 L21,8.1 L18.236,8.1 C18.236,8.1 16.542,13.63 7.534,13.63 C7.534,15.146 3.789,35.121 21,41.9 C38.211,35.121 34.466,15.146 34.466,13.63 C25.459,13.63 23.764,8.1 23.764,8.1 L23.764,8.1 Z M26.331,18.232 C25.742,18.867 25.197,18.866 24.381,17.824 C24.186,17.574 23.831,17.317 23.407,17.071 C23.049,16.915 22.681,16.807 22.308,16.742 L22.308,22.054 C24.963,23.277 26.299,24.534 26.274,25.805 C26.252,26.928 25.482,28.086 24.053,28.13 C23.48,28.149 22.886,28.241 22.307,28.391 L22.307,32.058 C24.029,32.359 25.318,32.687 25.318,33.817 C25.318,35.042 23.794,35.751 22.307,36.151 L22.307,38.404 L20.682,38.404 L20.682,36.49 C20.048,36.591 19.587,36.628 19.523,36.634 C19.34,36.741 19.151,37.573 19.199,38.355 L17.577,38.453 C17.484,36.939 17.906,35.13 19.396,35.013 C19.807,34.981 20.246,34.919 20.682,34.838 L20.682,33.428 C18.76,33.082 16.992,32.614 16.933,31.175 C16.904,30.454 17.223,29.713 17.858,29.03 C18.54,28.297 19.548,27.667 20.681,27.218 L20.681,23.12 C19.939,22.817 19.066,22.497 18.042,22.167 C15.951,21.492 15.399,20.382 15.304,19.568 C15.16,18.34 15.987,17.052 17.516,16.126 C18.4,15.59 19.507,15.203 20.681,15.086 L20.681,14.63 C19.957,14.33 19.448,13.619 19.448,12.787 C19.448,11.686 20.341,10.792 21.443,10.792 C22.545,10.792 23.438,11.686 23.438,12.787 C23.438,13.578 22.974,14.256 22.306,14.579 L22.306,15.107 C23.047,15.201 23.787,15.42 24.489,15.795 C25.014,15.915 25.469,16.055 25.752,16.213 C26.887,16.848 26.92,17.597 26.331,18.232 L26.331,18.232 Z" id="Shape"></path>
                        <path d="M16.921,19.379 C16.976,19.853 17.567,20.305 18.544,20.62 C19.317,20.87 20.026,21.121 20.684,21.373 L20.684,16.714 C19.826,16.823 19.017,17.117 18.362,17.514 C17.435,18.076 16.857,18.826 16.921,19.379 L16.921,19.379 Z" id="Shape"></path>
                        <path d="M18.558,31.077 C18.766,31.353 19.773,31.597 20.683,31.771 L20.683,28.987 C20.025,29.309 19.454,29.702 19.05,30.136 C18.734,30.477 18.561,30.809 18.558,31.077 L18.558,31.077 Z" id="Shape"></path>
                        <path d="M22.308,26.721 C22.872,26.598 23.444,26.522 24.003,26.506 C24.589,26.487 24.646,25.94 24.649,25.773 C24.654,25.507 24.158,24.802 22.308,23.858 L22.308,26.721 L22.308,26.721 Z" id="Shape"></path>
                    </g>
                </g>
            </g>
        </g>
    </g>
</svg>