<?xml version="1.0" encoding="UTF-8" standalone="no"?>
<svg width="5px" height="51px" viewBox="0 0 5 51" version="1.1" xmlns="http://www.w3.org/2000/svg" xmlns:xlink="http://www.w3.org/1999/xlink" xmlns:sketch="http://www.bohemiancoding.com/sketch/ns">
    <!-- Generator: sketchtool 3.4 (375) - http://www.bohemiancoding.com/sketch -->
    <title>}</title>
    <desc>Created with sketchtool.</desc>
    <defs></defs>
    <g id="Page-1" stroke="none" stroke-width="1" fill="none" fill-rule="evenodd" sketch:type="MSPage">
        <g id="Homepage-ver-1" sketch:type="MSArtboardGroup" transform="translate(-575.000000, -6660.000000)" fill="#999999">
            <g id="Контанты" sketch:type="MSLayerGroup" transform="translate(160.000000, 6439.000000)">
                <g id="}-+-}" transform="translate(415.000000, 221.000000)" sketch:type="MSShapeGroup">
                    <path d="M2.03009033,24.0087891 L2.03009033,2.28027344 C2.03009033,1.52636342 1.58673539,1.13769543 0.700012207,1.11425781 L0.700012207,0.299804688 C1.4187658,0.299804688 1.98418983,0.469724863 2.39630127,0.809570312 C2.80841271,1.14941576 3.01446533,1.61816107 3.01446533,2.21582031 L3.01446533,24.0087891 C3.01446533,24.3876972 3.12969855,24.6660147 3.36016846,24.84375 C3.59063836,25.0214853 3.95977529,25.1142578 4.46759033,25.1220703 L4.46759033,25.9482422 C3.99102545,25.9482422 3.62970094,26.0351554 3.38360596,26.2089844 C3.13751098,26.3828134 3.01446533,26.6728495 3.01446533,27.0791016 L3.01446533,48.8544922 C3.01446533,49.4521514 2.81427202,49.9179671 2.41387939,50.2519531 C2.01348677,50.5859392 1.44220342,50.7568359 0.700012207,50.7646484 L0.700012207,49.9443359 C1.13360813,49.9365234 1.46368295,49.8427743 1.69024658,49.6630859 C1.91681021,49.4833975 2.03009033,49.1943379 2.03009033,48.7958984 L2.03009033,27.0556641 C2.03009033,26.6103493 2.13751113,26.270509 2.35235596,26.0361328 C2.56720078,25.8017566 2.8953225,25.6455082 3.33673096,25.5673828 C2.46563285,25.3447258 2.03009033,24.848637 2.03009033,24.0087891 Z" id="}"></path>
                </g>
            </g>
        </g>
    </g>
</svg>