<?xml version="1.0" encoding="UTF-8" standalone="no"?>
<svg width="50px" height="41px" viewBox="0 0 50 41" version="1.1" xmlns="http://www.w3.org/2000/svg" xmlns:xlink="http://www.w3.org/1999/xlink" xmlns:sketch="http://www.bohemiancoding.com/sketch/ns">
    <!-- Generator: sketchtool 3.4 (375) - http://www.bohemiancoding.com/sketch -->
    <title>download-folder</title>
    <desc>Created with sketchtool.</desc>
    <defs></defs>
    <g id="Page-1" stroke="none" stroke-width="1" fill="none" fill-rule="evenodd" sketch:type="MSPage">
        <g id="Homepage-ver-1" sketch:type="MSArtboardGroup" transform="translate(-660.000000, -2620.000000)" fill="#FFFFFF">
            <g id="в-нашем-каталоге" sketch:type="MSLayerGroup" transform="translate(160.000000, 2170.814453)">
                <path d="M545.128375,454.102111 L524.615611,454.102111 L524.615611,452.256456 C524.615611,451.00565 523.609961,450 522.357683,450 L511.486205,450 C510.2354,450 509.230486,451.00565 509.230486,452.256456 L509.230486,482.820569 C509.230486,483.948429 508.30729,484.871625 507.179431,484.871625 C506.050835,484.871625 505.128375,483.948429 505.128375,482.820569 L505.128375,456.666299 C505.128375,455.251321 503.978429,454.102111 502.564188,454.102111 C501.147737,454.102111 500,455.250584 500,456.666299 L500,485.897153 C500,488.163915 501.835349,490 504.102847,490 L545.128375,490 C547.393665,490 549.231222,488.163915 549.231222,485.897153 L549.231222,458.204958 C549.231222,455.938196 547.394401,454.102111 545.128375,454.102111 L545.128375,454.102111 Z M537.912134,472.644065 L530.461046,481.65001 C529.585703,482.526089 528.163363,482.526089 527.28802,481.65001 L519.836195,472.644065 C519.61828,472.343695 519.487972,471.977067 519.487972,471.580255 C519.487972,470.591537 520.288223,469.791287 521.276204,469.791287 L523.0637,469.791287 C523.554746,469.791287 523.958184,469.389321 523.958184,468.897539 L523.958184,463.532844 C523.958184,462.545598 524.758434,461.746084 525.746416,461.746084 L532.004123,461.746084 C532.991368,461.746084 533.790882,462.545598 533.790882,463.532844 L533.790882,468.897539 C533.790882,469.389321 534.19432,469.791287 534.685366,469.791287 L536.474334,469.791287 C537.46158,469.791287 538.262566,470.591537 538.262566,471.580255 C538.26183,471.977067 538.131522,472.343695 537.912134,472.644065 L537.912134,472.644065 Z" id="download-folder" sketch:type="MSShapeGroup"></path>
            </g>
        </g>
    </g>
</svg>