<?xml version="1.0" encoding="UTF-8" standalone="no"?>
<svg width="195px" height="59px" viewBox="0 0 195 59" version="1.1" xmlns="http://www.w3.org/2000/svg" xmlns:xlink="http://www.w3.org/1999/xlink" xmlns:sketch="http://www.bohemiancoding.com/sketch/ns">
    <!-- Generator: sketchtool 3.4 (375) - http://www.bohemiancoding.com/sketch -->
    <title>fanber-logo-with-text</title>
    <desc>Created with sketchtool.</desc>
    <defs>
        <linearGradient x1="100.071845%" y1="49.9568106%" x2="-0.100970874%" y2="49.9568106%" id="linearGradient-1">
            <stop stop-color="#06BDE5" offset="0%"></stop>
            <stop stop-color="#2A4583" offset="100%"></stop>
        </linearGradient>
        <linearGradient x1="0.166994106%" y1="49.8006623%" x2="99.8860511%" y2="49.8006623%" id="linearGradient-2">
            <stop stop-color="#7EC24D" offset="0%"></stop>
            <stop stop-color="#006D43" offset="100%"></stop>
        </linearGradient>
    </defs>
    <g id="Page-1" stroke="none" stroke-width="1" fill="none" fill-rule="evenodd" sketch:type="MSPage">
        <g id="Homepage-ver-1" sketch:type="MSArtboardGroup" transform="translate(-222.000000, -132.000000)">
            <g id="fanber-logo-with-text" sketch:type="MSLayerGroup" transform="translate(213.000000, 127.000000)">
                <rect id="Rectangle-74" sketch:type="MSShapeGroup" x="0" y="0.348632812" width="215" height="69"></rect>
                <g id="subtext" transform="translate(125.525996, 26.778523)" fill="#06BDE5" sketch:type="MSShapeGroup">
                    <path d="M1.31667792,0 L2.89669142,0 C3.2916948,0 3.95003376,0 4.34503714,0.395973154 C4.60837272,0.659955257 4.60837272,0.791946309 4.60837272,1.18791946 C4.60837272,1.71588367 4.34503714,2.11185682 4.08170155,2.37583893 C3.81836597,2.63982103 3.55503038,2.77181208 3.02835922,2.90380313 L3.02835922,2.90380313 C3.2916948,2.90380313 3.68669818,3.03579418 3.81836597,3.29977629 C4.08170155,3.56375839 4.08170155,3.69574944 4.08170155,3.95973154 C4.08170155,4.6196868 3.81836597,5.14765101 3.42336259,5.41163311 C2.89669142,5.80760626 2.10668467,5.80760626 1.5800135,5.80760626 L0,5.80760626 L1.18501013,0 L1.31667792,0 Z M1.05334234,5.14765101 L1.05334234,5.14765101 L1.7116813,5.14765101 C2.10668467,5.14765101 2.63335584,5.14765101 2.89669142,4.8836689 C3.16002701,4.75167785 3.2916948,4.3557047 3.2916948,4.0917226 C3.2916948,3.82774049 3.16002701,3.56375839 2.89669142,3.43176734 C2.63335584,3.29977629 2.37002026,3.29977629 1.97501688,3.29977629 L1.44834571,3.29977629 L1.05334234,5.27964206 L1.05334234,5.14765101 Z M1.5800135,2.50782998 L1.5800135,2.50782998 L1.97501688,2.50782998 L2.10668467,2.50782998 C2.50168805,2.50782998 2.89669142,2.50782998 3.16002701,2.24384787 C3.42336259,2.11185682 3.68669818,1.71588367 3.68669818,1.31991051 C3.68669818,1.05592841 3.68669818,0.92393736 3.42336259,0.791946309 C3.2916948,0.659955257 2.89669142,0.659955257 2.76502363,0.659955257 L1.84334909,0.659955257 L1.44834571,2.50782998 L1.5800135,2.50782998 Z" id="Shape"></path>
                    <path d="M6.32005402,0 L9.48008103,0 L9.34841323,0.659955257 L6.97839298,0.659955257 L6.5833896,2.37583893 L8.82174207,2.37583893 L8.69007427,3.16778523 L6.45172181,3.16778523 L6.05671843,5.01565996 L8.55840648,5.01565996 L8.2950709,5.80760626 L5.13504389,5.80760626 L6.32005402,0 Z" id="Shape"></path>
                    <path d="M10.9284267,0 L11.7184335,0 L11.1917623,2.37583893 L13.956786,2.37583893 L14.4834571,0 L15.2734639,0 L14.0884537,5.80760626 L13.298447,5.80760626 L13.8251182,3.16778523 L11.0600945,3.16778523 L10.5334234,5.80760626 L9.74341661,5.80760626 L10.9284267,0 Z" id="Shape"></path>
                    <path d="M17.7751519,0.659955257 L15.9318028,0.659955257 L16.1951384,0 L20.5401756,0 L20.4085078,0.659955257 L18.5651587,0.659955257 L17.5118163,5.80760626 L16.7218096,5.80760626 L17.7751519,0.659955257 Z" id="Shape"></path>
                    <path d="M21.3301823,0 L22.1201891,0 L21.3301823,3.95973154 L21.1985145,4.6196868 C21.4618501,4.22371365 21.5935179,3.95973154 21.8568535,3.69574944 L24.8852127,0 L25.8068872,0 L24.6218771,5.80760626 L23.8318704,5.80760626 L24.6218771,1.84787472 L24.7535449,1.18791946 C24.4902093,1.58389262 24.2268737,1.84787472 24.0952059,2.11185682 L21.0668467,5.80760626 L20.1451722,5.80760626 L21.3301823,0 L21.3301823,0 Z" id="Shape"></path>
                    <path d="M31.4686023,0 L30.2835922,5.80760626 L29.4935854,5.80760626 L30.5469278,0.791946309 L28.7035787,0.791946309 L28.4402431,2.24384787 C28.3085753,2.77181208 28.3085753,2.77181208 28.0452397,3.69574944 C27.9135719,4.3557047 27.6502363,5.01565996 27.255233,5.41163311 C26.9918974,5.67561521 26.596894,5.80760626 26.2018906,5.80760626 L25.8068872,5.80760626 L25.938555,5.14765101 L26.2018906,5.14765101 C26.596894,5.14765101 26.8602296,4.8836689 26.9918974,4.6196868 C27.1235652,4.48769575 27.1235652,4.22371365 27.3869007,3.29977629 C27.5185685,3.03579418 27.6502363,2.24384787 27.6502363,1.97986577 L28.0452397,0.131991051 L31.4686023,0.131991051 L31.4686023,0 Z" id="Shape"></path>
                    <path d="M35.4186361,5.80760626 L34.6286293,5.80760626 L35.1553005,3.43176734 L34.2336259,3.43176734 L32.5219446,5.80760626 L31.6002701,5.80760626 L33.4436192,3.29977629 C33.1802836,3.16778523 32.916948,3.03579418 32.7852802,2.90380313 C32.6536124,2.77181208 32.5219446,2.50782998 32.5219446,2.11185682 C32.5219446,1.58389262 32.7852802,0.92393736 33.3119514,0.527964206 C33.7069548,0.263982103 34.3652937,0.131991051 34.8919649,0.131991051 L36.6036462,0.131991051 L35.4186361,5.93959732 L35.4186361,5.80760626 Z M35.6819716,0.791946309 L35.6819716,0.791946309 L34.7602971,0.791946309 C34.4969615,0.791946309 34.1019581,0.791946309 33.8386226,1.05592841 C33.575287,1.31991051 33.4436192,1.58389262 33.4436192,1.97986577 C33.4436192,2.24384787 33.575287,2.37583893 33.7069548,2.50782998 C33.9702903,2.77181208 34.3652937,2.77181208 34.6286293,2.77181208 L35.2869683,2.77181208 L35.6819716,0.659955257 L35.6819716,0.791946309 Z" id="Shape"></path>
                    <path d="M38.9736664,0 L37.9203241,5.01565996 L40.4220122,5.01565996 L41.4753545,0 L42.2653612,0 L41.3436867,5.01565996 L42.0020257,5.01565996 L41.6070223,6.99552573 L40.6853477,6.99552573 L40.9486833,5.80760626 L36.9986496,5.80760626 L38.1836597,0 L38.9736664,0 Z" id="Shape"></path>
                    <path d="M43.9770425,0 L44.7670493,0 L43.9770425,3.95973154 L43.8453747,4.6196868 C44.1087103,4.22371365 44.2403781,3.95973154 44.5037137,3.69574944 L47.5320729,0 L48.4537475,0 L47.2687373,5.80760626 L46.4787306,5.80760626 L47.2687373,1.84787472 L47.4004051,1.18791946 C47.1370695,1.58389262 46.873734,1.84787472 46.7420662,2.11185682 L43.713707,5.80760626 L42.7920324,5.80760626 L43.9770425,0 L43.9770425,0 Z" id="Shape"></path>
                    <path d="M54.3787981,0.791946309 C54.6421337,1.18791946 54.7738015,1.84787472 54.7738015,2.24384787 C54.7738015,3.16778523 54.3787981,4.22371365 53.5887914,5.01565996 C53.0621202,5.54362416 52.2721134,5.93959732 51.3504389,5.93959732 C50.6920999,5.93959732 50.033761,5.80760626 49.5070898,5.14765101 C49.2437542,4.8836689 49.1120864,4.3557047 49.1120864,3.69574944 C49.1120864,2.77181208 49.5070898,1.58389262 50.2970966,0.92393736 C50.6920999,0.527964206 51.4821067,0 52.535449,0 C53.5887914,0 54.1154625,0.395973154 54.3787981,0.92393736 L54.3787981,0.791946309 Z M50.8237677,1.31991051 L50.8237677,1.31991051 C50.2970966,1.84787472 49.9020932,2.63982103 49.9020932,3.56375839 C49.9020932,3.82774049 49.9020932,4.3557047 50.1654288,4.6196868 C50.2970966,4.8836689 50.6920999,5.14765101 51.3504389,5.14765101 C51.8771101,5.14765101 52.4037812,5.01565996 52.9304524,4.48769575 C53.4571236,3.95973154 53.8521269,3.03579418 53.8521269,2.24384787 C53.8521269,1.97986577 53.8521269,1.45190157 53.5887914,1.18791946 C53.3254558,0.92393736 53.0621202,0.659955257 52.4037812,0.659955257 C51.8771101,0.659955257 51.3504389,0.791946309 50.8237677,1.31991051 L50.8237677,1.31991051 Z" id="Shape"></path>
                    <path d="M56.4854828,0 L57.2754895,0 L56.7488184,2.37583893 L59.513842,2.37583893 L60.0405132,0 L60.8305199,0 L59.6455098,5.80760626 L58.855503,5.80760626 L59.3821742,3.16778523 L56.6171506,3.16778523 L56.0904794,5.80760626 L55.3004727,5.80760626 L56.4854828,0 Z" id="Shape"></path>
                    <path d="M62.4105334,0 L63.2005402,0 L62.8055368,2.37583893 L65.4388926,2.37583893 L65.9655638,0 L66.7555706,0 L65.7022282,5.80760626 L64.7805537,5.80760626 L65.3072248,3.16778523 L62.5422012,3.16778523 L62.01553,5.80760626 L61.2255233,5.80760626 L62.4105334,0 Z" id="Shape"></path>
                    <path d="M68.3355841,0 L69.1255908,0 L68.5989196,2.37583893 L68.993923,2.37583893 C69.5205942,2.37583893 70.1789332,2.37583893 70.5739365,2.77181208 C70.8372721,3.03579418 71.1006077,3.43176734 71.1006077,3.82774049 C71.1006077,4.3557047 70.9689399,4.8836689 70.3106009,5.41163311 C69.7839298,5.80760626 69.1255908,5.93959732 68.5989196,5.93959732 L67.1505739,5.93959732 L68.3355841,0.131991051 L68.3355841,0 Z M68.2039163,5.01565996 L68.2039163,5.01565996 L68.7305874,5.01565996 C69.1255908,5.01565996 69.5205942,5.01565996 69.9155976,4.75167785 C70.1789332,4.6196868 70.4422687,4.22371365 70.4422687,3.82774049 C70.4422687,3.56375839 70.4422687,3.43176734 70.1789332,3.16778523 C69.9155976,3.03579418 69.5205942,2.90380313 69.2572586,2.90380313 L69.1255908,2.90380313 L68.5989196,2.90380313 L68.2039163,4.8836689 L68.2039163,5.01565996 Z M72.812289,0 L72.812289,0 L73.6022957,0 L72.4172856,5.80760626 L71.6272789,5.80760626 L72.812289,0 L72.812289,0 Z" id="Shape"></path>
                    <path d="M75.1823093,0 L78.4740041,0 L78.2106685,0.659955257 L75.8406482,0.659955257 L75.5773126,2.37583893 L77.6839973,2.37583893 L77.5523295,3.16778523 L75.4456448,3.16778523 L75.0506415,5.01565996 L77.4206617,5.01565996 L77.2889939,5.80760626 L73.9972991,5.80760626 L75.1823093,0 Z" id="Shape"></path>
                    <path d="M5.0033761,10.8232662 C4.74004051,10.6912752 4.47670493,10.5592841 3.95003376,10.5592841 C3.42336259,10.5592841 2.89669142,10.6912752 2.50168805,11.0872483 C1.7116813,11.6152125 1.31667792,12.5391499 1.31667792,13.4630872 C1.31667792,13.8590604 1.44834571,14.2550336 1.5800135,14.5190157 C1.7116813,14.7829978 2.23835246,15.1789709 3.16002701,15.1789709 C3.42336259,15.1789709 3.81836597,15.1789709 4.34503714,14.9149888 L4.21336935,15.7069351 C3.68669818,15.8389262 3.2916948,15.9709172 2.89669142,15.9709172 C2.23835246,15.9709172 1.44834571,15.8389262 0.790006752,15.1789709 C0.526671168,14.7829978 0.263335584,14.3870246 0.263335584,13.7270694 C0.263335584,12.803132 0.65833896,11.4832215 1.84334909,10.6912752 C2.50168805,10.295302 3.2916948,10.0313199 3.95003376,10.0313199 C4.60837272,10.0313199 4.87170831,10.163311 5.13504389,10.295302 L4.87170831,11.0872483 L5.0033761,10.8232662 Z" id="Shape"></path>
                    <path d="M6.45172181,9.89932886 L7.24172856,9.89932886 L6.45172181,13.8590604 L6.32005402,14.5190157 C6.5833896,14.1230425 6.71505739,13.8590604 6.97839298,13.5950783 L10.0067522,9.89932886 L10.9284267,9.89932886 L9.74341661,15.7069351 L8.95340986,15.7069351 L9.74341661,11.7472036 L9.8750844,11.0872483 C9.61174882,11.4832215 9.34841323,11.7472036 9.21674544,12.0111857 L6.18838623,15.7069351 L5.26671168,15.7069351 L6.45172181,9.89932886 L6.45172181,9.89932886 Z" id="Shape"></path>
                    <path d="M16.3268062,10.8232662 C16.0634706,10.6912752 15.800135,10.5592841 15.1417961,10.5592841 C14.6151249,10.5592841 14.0884537,10.6912752 13.6934504,11.0872483 C12.9034436,11.6152125 12.5084402,12.5391499 12.5084402,13.4630872 C12.5084402,13.8590604 12.640108,14.2550336 12.7717758,14.5190157 C12.9034436,14.7829978 13.4301148,15.1789709 14.3517893,15.1789709 C14.6151249,15.1789709 15.0101283,15.1789709 15.5367995,14.9149888 L15.4051317,15.7069351 C14.8784605,15.8389262 14.4834571,15.9709172 14.0884537,15.9709172 C13.4301148,15.9709172 12.640108,15.8389262 11.9817691,15.1789709 C11.7184335,14.7829978 11.4550979,14.3870246 11.4550979,13.7270694 C11.4550979,12.803132 11.8501013,11.4832215 13.0351114,10.6912752 C13.6934504,10.295302 14.4834571,10.0313199 15.1417961,10.0313199 C15.800135,10.0313199 16.0634706,10.163311 16.3268062,10.295302 L16.0634706,11.0872483 L16.3268062,10.8232662 Z" id="Shape"></path>
                    <path d="M18.6968265,10.5592841 L16.9851452,10.5592841 L17.116813,9.89932886 L21.4618501,9.89932886 L21.3301823,10.5592841 L19.4868332,10.5592841 L18.5651587,15.7069351 L17.6434841,15.7069351 L18.6968265,10.5592841 Z" id="Shape"></path>
                    <path d="M22.3835246,9.89932886 L25.5435517,9.89932886 L25.4118839,10.5592841 L23.0418636,10.5592841 L22.6468602,12.2751678 L24.8852127,12.2751678 L24.7535449,13.0671141 L22.5151924,13.0671141 L22.1201891,14.9149888 L24.4902093,14.9149888 L24.3585415,15.7069351 L21.1985145,15.7069351 L22.3835246,9.89932886 Z" id="Shape"></path>
                    <path d="M26.8602296,9.89932886 L28.3085753,9.89932886 L29.098582,14.6510067 L31.8636057,9.89932886 L33.1802836,9.89932886 L31.9952735,15.7069351 L31.2052667,15.7069351 L32.258609,10.6912752 L29.2302498,15.7069351 L28.4402431,15.7069351 L27.6502363,10.6912752 L27.5185685,10.6912752 L26.596894,15.7069351 L25.8068872,15.7069351 L26.8602296,9.89932886 Z" id="Shape"></path>
                    <path d="M34.7602971,9.89932886 L35.5503038,9.89932886 L35.0236327,12.2751678 L35.4186361,12.2751678 C35.9453072,12.2751678 36.6036462,12.2751678 36.9986496,12.6711409 C37.2619851,12.935123 37.5253207,13.3310962 37.5253207,13.7270694 C37.5253207,14.2550336 37.3936529,14.7829978 36.735314,15.310962 C36.2086428,15.7069351 35.5503038,15.7069351 34.8919649,15.7069351 L33.4436192,15.7069351 L34.6286293,9.89932886 L34.7602971,9.89932886 Z M34.6286293,14.9149888 L34.6286293,14.9149888 L35.1553005,14.9149888 C35.5503038,14.9149888 35.9453072,14.9149888 36.3403106,14.6510067 C36.6036462,14.5190157 36.8669818,14.1230425 36.8669818,13.7270694 C36.8669818,13.4630872 36.8669818,13.3310962 36.6036462,13.0671141 C36.3403106,12.935123 35.9453072,12.803132 35.6819716,12.803132 L35.5503038,12.803132 L35.0236327,12.803132 L34.6286293,14.7829978 L34.6286293,14.9149888 Z M39.237002,9.89932886 L39.237002,9.89932886 L40.0270088,9.89932886 L38.8419986,15.7069351 L38.0519919,15.7069351 L39.237002,9.89932886 L39.237002,9.89932886 Z" id="Shape"></path>
                </g>
                <path d="M14.2667117,44.7293065 L14.2667117,29.0223714 C11.501688,33.7740492 9.65833896,39.0536913 9,44.7293065 L14.2667117,44.7293065 L14.2667117,44.7293065 Z M31.5151924,40.3736018 L31.5151924,40.3736018 L29.9351789,44.7293065 L40.4686023,44.7293065 L39.0202566,40.3736018 L31.5151924,40.3736018 L31.5151924,40.3736018 Z M51.397029,30.738255 L51.397029,30.738255 L51.5286968,44.7293065 L54.8203916,44.7293065 L57.3220797,40.6375839 L51.5286968,30.738255 L51.397029,30.738255 L51.397029,30.738255 Z M35.2018906,28.4944072 L35.2018906,28.4944072 L32.7002026,36.4138702 L37.8352465,36.4138702 L35.4652262,28.4944072 L35.3335584,28.4944072 L35.2018906,28.4944072 Z M76.8089129,8.82774049 L76.8089129,8.82774049 C70.7521945,6.31991051 64.1688049,5 57.1904119,5 C40.7319379,5 26.116813,12.655481 17.2950709,24.4026846 L27.3018231,24.4026846 L27.3018231,28.3624161 L19.6650912,28.3624161 L19.6650912,32.7181208 L26.6434841,32.7181208 L26.6434841,36.6778523 L19.6650912,36.6778523 L19.6650912,44.7293065 L24.2734639,44.7293065 L31.778528,24.4026846 L38.756921,24.4026846 L46.3936529,44.7293065 L46.3936529,24.4026846 L53.6353815,24.4026846 L60.2187711,35.885906 L61.6671168,33.5100671 L61.535449,24.4026846 L67.1971641,24.4026846 L76.6772451,8.95973154 L76.8089129,8.82774049 Z" id="Shape" fill="url(#linearGradient-1)" sketch:type="MSShapeGroup"></path>
                <path d="M72.332208,29.9463087 C72.332208,28.098434 71.1471978,27.8344519 69.4355165,27.8344519 L67.855503,27.8344519 L67.855503,32.1901566 L69.3038488,32.1901566 C71.01553,32.1901566 72.332208,31.7941834 72.332208,29.9463087 L72.332208,29.9463087 Z M106.565834,30.2102908 L106.565834,30.2102908 C106.565834,28.7583893 105.380824,27.8344519 103.80081,27.8344519 L101.825793,27.8344519 L101.825793,32.5861298 L103.80081,32.5861298 C105.249156,32.5861298 106.565834,32.0581655 106.565834,30.2102908 L106.565834,30.2102908 Z M105.512492,24.1387025 L105.512492,24.1387025 C109.19919,24.1387025 112.095881,26.3825503 112.095881,29.9463087 C112.095881,32.5861298 110.3842,34.9619687 108.277515,35.753915 L110.910871,40.5055928 C113.807562,35.6219239 115.782579,30.0782998 116.572586,24.2706935 L105.644159,24.2706935 L105.512492,24.1387025 Z M101.694126,36.6778523 L101.694126,36.6778523 L101.694126,44.4653244 L96.1640783,44.4653244 L96.1640783,24.1387025 L93.3990547,24.1387025 L93.3990547,28.098434 L85.1039838,28.098434 L85.1039838,32.1901566 L92.6090479,32.1901566 L92.6090479,36.1498881 L85.1039838,36.1498881 L85.1039838,40.6375839 L93.6623903,40.6375839 L93.6623903,44.5973154 L79.5739365,44.5973154 L79.5739365,24.2706935 L71.1471978,24.2706935 C74.9655638,24.2706935 77.7305874,25.9865772 77.7305874,29.4183445 C77.7305874,31.9261745 76.4139095,33.3780761 74.1755571,34.1700224 L74.1755571,34.3020134 C76.9405807,34.8299776 78.2572586,36.4138702 78.2572586,38.9217002 C78.2572586,43.541387 74.3072248,44.7293065 70.4888589,44.7293065 L59.4287643,44.7293065 L59.2970966,44.7293065 L49.5536799,60.1722595 C55.6103984,62.6800895 61.1404456,64 68.1188386,64 C84.1823093,64 98.5340986,56.7404922 107.355841,45.5212528 L103.142471,36.8098434 L101.694126,36.8098434 L101.694126,36.6778523 Z M72.7272113,38.393736 L72.7272113,38.393736 C72.7272113,36.1498881 71.1471978,35.885906 69.4355165,35.885906 L67.7238352,35.885906 L67.7238352,40.7695749 L69.3038488,40.7695749 C71.2788656,40.7695749 72.7272113,40.3736018 72.7272113,38.393736 L72.7272113,38.393736 Z" id="Shape" fill="url(#linearGradient-2)" sketch:type="MSShapeGroup"></path>
            </g>
        </g>
    </g>
</svg>