<?xml version="1.0" encoding="UTF-8" standalone="no"?>
<svg width="80px" height="80px" viewBox="0 0 80 80" version="1.1" xmlns="http://www.w3.org/2000/svg" xmlns:xlink="http://www.w3.org/1999/xlink" xmlns:sketch="http://www.bohemiancoding.com/sketch/ns">
    <!-- Generator: sketchtool 3.4 (375) - http://www.bohemiancoding.com/sketch -->
    <title>feature-icon-5</title>
    <desc>Created with sketchtool.</desc>
    <defs>
        <radialGradient cx="50%" cy="13.9160156%" fx="50%" fy="13.9160156%" r="92.2412109%" id="radialGradient-1">
            <stop stop-color="#3D99FC" offset="0%"></stop>
            <stop stop-color="#064C94" offset="100%"></stop>
        </radialGradient>
        <rect id="path-2" x="0" y="0" width="80" height="80" rx="3"></rect>
    </defs>
    <g id="Page-1" stroke="none" stroke-width="1" fill="none" fill-rule="evenodd" sketch:type="MSPage">
        <g id="Homepage-ver-1" sketch:type="MSArtboardGroup" transform="translate(-1120.000000, -4355.000000)">
            <g id="feature-icon-5" sketch:type="MSLayerGroup" transform="translate(1120.000000, 4355.000000)">
                <g id="Rectangle-16">
                    <use fill="url(#radialGradient-1)" fill-rule="evenodd" sketch:type="MSShapeGroup" xlink:href="#path-2"></use>
                    <use fill="none" xlink:href="#path-2"></use>
                </g>
                <rect id="Rectangle-23-Copy-2" stroke="#FFFFFF" stroke-width="2" sketch:type="MSShapeGroup" x="4" y="4" width="72" height="72" rx="2"></rect>
                <g id="Shape-+-Shape" transform="translate(16.000000, 16.000000)" fill="#FFFFFF" sketch:type="MSShapeGroup">
                    <path d="M1.23753846,1.61693389 L-0.0148923077,2.86936466 C-1.05833846,3.91281082 -1.05833846,5.62161082 -0.0148923077,6.66505697 L17.4652308,23.3860416 C17.5117538,23.4325647 17.5612308,23.4694877 17.6092308,23.5137954 C16.5318154,25.9005031 16.712,28.7760724 18.3469538,31.05718 C20.0055385,33.3744724 22.7312,34.4740416 25.3763692,34.1742262 L21.6205538,28.9341031 C20.9766154,28.034657 21.1856,26.7726262 22.0850462,26.1279493 L24.8166154,24.1725031 C25.7153231,23.5293031 26.9773538,23.7368108 27.6220308,24.636257 L31.3763692,29.877857 C32.5113846,27.4704724 32.3467077,24.5373031 30.6866462,22.2200108 C28.6905846,19.4352724 25.1614769,18.4117647 22.0769231,19.461857 C21.9772308,19.337057 21.8716308,19.2152108 21.7534769,19.0985339 L5.03323077,1.61693389 C3.98978462,0.572749279 2.28098462,0.572749279 1.23753846,1.61693389 L1.23753846,1.61693389 Z M4.62116923,3.86111851 C5.28209231,4.52204159 5.28209231,5.59281082 4.62116923,6.25299543 C3.96098462,6.91391851 2.89021538,6.91391851 2.23003077,6.25299543 C1.56984615,5.59281082 1.56984615,4.52204159 2.23076923,3.86185697 C2.89095385,3.20093389 3.96172308,3.20093389 4.62116923,3.86111851 L4.62116923,3.86111851 Z" id="Shape"></path>
                    <path d="M46.0592,28.5316416 L46.0592,22.2244416 L41.6151385,21.689057 C41.1321846,19.2809339 40.184,17.042657 38.8702769,15.0672724 L41.6350769,11.5440724 L37.1755077,7.08376466 L33.6523077,9.85004159 C31.6761846,8.53631851 29.4379077,7.58813389 27.0305231,7.10518005 L26.4951385,2.65964159 L20.1872,2.65964159 L19.6510769,7.10518005 C18.0397538,7.4286262 16.5081846,7.96401082 15.0770462,8.67293389 L19.4288,13.4589031 C20.6612923,13.0549647 21.9735385,12.828257 23.3426462,12.828257 C30.2716308,12.828257 35.8905846,18.4464724 35.8905846,25.3769339 C35.8905846,32.3073954 30.2716308,37.9256108 23.3426462,37.9256108 C16.4107077,37.9256108 10.7924923,32.3073954 10.7924923,25.3769339 C10.7924923,23.90518 11.0590769,22.4991493 11.5250462,21.1861647 L6.51975385,17.3446877 C5.86695385,18.7093647 5.37366154,20.1641339 5.0672,21.6883185 L0.623138462,22.2237031 L0.623138462,28.5309031 L5.06793846,29.0670262 C5.55089231,31.4744108 6.49907692,33.7134262 7.81427692,35.6880724 L5.048,39.2120108 L9.50756923,43.6708416 L13.0315077,40.9060416 C15.0061538,42.2197647 17.2444308,43.1679493 19.6518154,43.6509031 L20.1872,48.0957031 L26.4951385,48.0957031 L27.0305231,43.6509031 C29.4379077,43.1679493 31.6776615,42.2197647 33.6523077,40.9060416 L37.1755077,43.6708416 L41.6350769,39.2120108 L38.8702769,35.6880724 C40.1825231,33.7126877 41.1321846,31.4744108 41.6151385,29.0670262 L46.0592,28.5316416 L46.0592,28.5316416 Z" id="Shape"></path>
                </g>
            </g>
        </g>
    </g>
</svg>