<?xml version="1.0" encoding="UTF-8" standalone="no"?>
<svg width="80px" height="80px" viewBox="0 0 80 80" version="1.1" xmlns="http://www.w3.org/2000/svg" xmlns:xlink="http://www.w3.org/1999/xlink" xmlns:sketch="http://www.bohemiancoding.com/sketch/ns">
    <!-- Generator: sketchtool 3.4 (375) - http://www.bohemiancoding.com/sketch -->
    <title>feature-icon-1</title>
    <desc>Created with sketchtool.</desc>
    <defs>
        <radialGradient cx="50%" cy="13.9160156%" fx="50%" fy="13.9160156%" r="92.2412109%" id="radialGradient-1">
            <stop stop-color="#3D99FC" offset="0%"></stop>
            <stop stop-color="#064C94" offset="100%"></stop>
        </radialGradient>
        <rect id="path-2" x="0" y="0" width="80" height="80" rx="3"></rect>
    </defs>
    <g id="Page-1" stroke="none" stroke-width="1" fill="none" fill-rule="evenodd" sketch:type="MSPage">
        <g id="Homepage-ver-1" sketch:type="MSArtboardGroup" transform="translate(-220.000000, -832.000000)">
            <g id="features" sketch:type="MSLayerGroup" transform="translate(160.000000, 772.000000)">
                <g id="feature-icon-1" transform="translate(60.000000, 60.000000)">
                    <g id="Rectangle-16">
                        <use fill="url(#radialGradient-1)" fill-rule="evenodd" sketch:type="MSShapeGroup" xlink:href="#path-2"></use>
                        <use fill="none" xlink:href="#path-2"></use>
                    </g>
                    <rect id="Rectangle-23-Copy-2" stroke="#FFFFFF" stroke-width="2" sketch:type="MSShapeGroup" x="4" y="4" width="72" height="72" rx="2"></rect>
                    <g id="noun_144989_cc" transform="translate(16.000000, 16.000000)" fill="#FFFFFF" sketch:type="MSShapeGroup">
                        <path d="M30.78,6 C30.78,5.88 30.78,5.82 30.72,5.7 C30.66,5.52 30.48,5.4 30.3,5.28 C30.18,5.22 30.12,5.22 30,5.22 L6,5.22 C5.58,5.22 5.22,5.58 5.22,6 L5.22,30 C5.22,30.12 5.22,30.18 5.28,30.3 C5.34,30.48 5.52,30.6 5.7,30.72 C5.82,30.78 5.88,30.78 6,30.78 L17.28,30.78 L17.28,42 C17.28,42.12 17.28,42.18 17.34,42.3 C17.4,42.48 17.58,42.6 17.76,42.72 C17.88,42.78 17.94,42.78 18.06,42.78 L42.06,42.78 C42.48,42.78 42.84,42.42 42.84,42 L42.84,18 C42.84,17.88 42.84,17.82 42.78,17.7 C42.72,17.52 42.54,17.4 42.36,17.28 C42.24,17.22 42.18,17.22 42.06,17.22 L30.78,17.22 L30.78,6 L30.78,6 Z M18.78,29.28 L18.78,18.78 L29.28,18.78 L29.28,29.28 L18.78,29.28 L18.78,29.28 Z M22.2,30.78 L18.78,34.2 L18.78,30.78 L22.2,30.78 L22.2,30.78 Z M25.8,17.28 L29.22,13.86 L29.22,17.28 L25.8,17.28 L25.8,17.28 Z M23.7,17.28 L19.8,17.28 L29.28,7.8 L29.28,11.7 L23.7,17.28 L23.7,17.28 Z M6.78,6.78 L10.2,6.78 L6.78,10.2 L6.78,6.78 L6.78,6.78 Z M6.78,12.3 L12.36,6.72 L16.2,6.72 L6.78,16.2 L6.78,12.3 L6.78,12.3 Z M6.78,18.3 L18.36,6.72 L22.2,6.72 L6.78,22.2 L6.78,18.3 L6.78,18.3 Z M17.28,29.28 L13.8,29.28 L17.22,25.86 L17.22,29.28 L17.28,29.28 Z M17.28,23.7 L11.7,29.28 L7.8,29.28 L17.28,19.8 L17.28,23.7 L17.28,23.7 Z M17.46,17.46 L17.46,17.46 L6.78,28.2 L6.78,24.3 L24.36,6.72 L28.2,6.72 L17.46,17.46 L17.46,17.46 Z M18.78,36.3 L24.36,30.72 L28.2,30.72 L18.78,40.2 L18.78,36.3 L18.78,36.3 Z M41.28,41.28 L37.8,41.28 L41.22,37.86 L41.22,41.28 L41.28,41.28 Z M41.28,35.7 L35.7,41.28 L31.8,41.28 L41.28,31.8 L41.28,35.7 L41.28,35.7 Z M41.28,29.7 L29.7,41.28 L25.8,41.28 L41.28,25.8 L41.28,29.7 L41.28,29.7 Z M41.28,23.7 L23.7,41.28 L19.8,41.28 L30.54,30.54 L30.54,30.54 L41.28,19.8 L41.28,23.7 L41.28,23.7 Z M40.2,18.78 L30.78,28.2 L30.78,24.3 L36.36,18.72 L40.2,18.72 L40.2,18.78 Z M34.2,18.78 L30.78,22.2 L30.78,18.78 L34.2,18.78 L34.2,18.78 Z" id="Shape"></path>
                        <path d="M46.5,12 L36,12 L36,1.5 C36,0.66 35.34,0 34.5,0 L1.5,0 C0.66,0 0,0.66 0,1.5 L0,34.5 C0,35.34 0.66,36 1.5,36 L12,36 L12,46.5 C12,47.34 12.66,48 13.5,48 L46.5,48 C47.34,48 48,47.34 48,46.5 L48,13.5 C48,12.66 47.34,12 46.5,12 L46.5,12 Z M45,45 L15,45 L15,34.5 C15,33.66 14.34,33 13.5,33 L3,33 L3,3 L33,3 L33,13.5 C33,14.34 33.66,15 34.5,15 L45,15 L45,45 L45,45 Z" id="Shape"></path>
                    </g>
                </g>
            </g>
        </g>
    </g>
</svg>